<svg width="89" height="62" viewBox="0 0 89 62" fill="none" xmlns="http://www.w3.org/2000/svg">
<path fill-rule="evenodd" clip-rule="evenodd" d="M44.0919 20.6541L53.9467 30.5089L44.0919 40.3637L34.2371 30.5089L44.0919 20.6541ZM44.0919 13.583L54.1394 3.53555L57.6749 1.15601e-05L61.2104 3.53555L84.6482 26.9733L88.1838 30.5089L84.6482 34.0444L61.2104 57.4822L57.6749 61.0177L54.1394 57.4822L44.0919 47.4347L34.0444 57.4822L30.5089 61.0177L26.9733 57.4822L3.53553 34.0444L0 30.5089L3.53553 26.9733L26.9733 3.53553L30.5089 0L34.0444 3.53553L44.0919 13.583ZM47.6274 17.1186L57.6749 7.07108L81.1127 30.5089L57.6749 53.9467L47.6274 43.8992L57.4822 34.0444L61.0177 30.5089L57.4822 26.9733L47.6274 17.1186ZM40.5563 43.8992L30.5089 53.9467L7.07107 30.5089L30.5089 7.07107L40.5564 17.1186L30.7016 26.9733L27.166 30.5089L30.7016 34.0444L40.5563 43.8992Z" fill="white"/>
</svg>
