<svg width="621" height="488" viewBox="0 0 621 488" fill="none" xmlns="http://www.w3.org/2000/svg">
<g clip-path="url(#clip0)">
<path opacity="0.1" d="M303.225 42.8009C280.991 40.1337 260.195 31.9411 239.208 25.0134C215.865 17.3467 192.053 11.192 167.919 6.58754C142.208 1.67079 115.703 -1.53346 89.9253 0.757847C64.148 3.04915 38.997 11.2895 22.5559 26.356C-5.29748 51.9124 -2.94704 90.6498 6.2519 124.793C17.1689 165.302 36.0441 205.346 66.9399 239.847C88.8992 264.371 116.454 285.601 143.765 306.677C159.204 318.569 174.786 330.544 192.82 339.895C209.595 348.583 228.118 354.812 246.51 360.952C266.149 367.516 285.835 374.115 306.112 379.133C370.833 395.148 438.966 394.647 505.584 393.221C529.029 392.726 553.535 391.908 573.204 382.749C588.529 375.589 599.452 363.989 607.727 351.62C618.554 335.413 625.391 316.075 617.701 298.001C606.366 271.341 567.519 255.636 554.585 229.381C538.013 195.692 570.203 160.081 561.094 125.013C557.305 110.424 546.621 97.2373 535.298 84.9394C508.292 55.6179 472.397 28.9099 424.153 32.8122C383.307 36.106 346.052 47.9444 303.225 42.8009Z" fill="#FFC107"/>
<path d="M203.618 26.4156H390.341C395.235 26.4156 399.93 28.3563 403.396 31.8123C406.863 35.2684 408.818 39.958 408.834 44.8535V453.792C408.818 458.687 406.863 463.377 403.396 466.833C399.93 470.289 395.235 472.229 390.341 472.229H203.618C198.723 472.229 194.028 470.289 190.562 466.833C187.095 463.377 185.14 458.687 185.124 453.792V44.8475C185.142 39.9531 187.098 35.265 190.564 31.8102C194.03 28.3554 198.724 26.4156 203.618 26.4156V26.4156Z" fill="url(#paint0_linear)"/>
<path d="M202.854 470.523H391.092C399.945 470.523 407.122 463.345 407.122 454.49L407.122 45.8618C407.122 37.007 399.945 29.8287 391.092 29.8287H202.854C194.001 29.8287 186.824 37.007 186.824 45.8618L186.824 454.49C186.824 463.345 194.001 470.523 202.854 470.523Z" fill="#4E5A86"/>
<path d="M203.045 429.53H390.895L390.895 70.8275H203.045L203.045 429.53Z" fill="white"/>
<path d="M319.171 52.0317C320.113 52.0317 320.877 51.2676 320.877 50.3251C320.877 49.3826 320.113 48.6186 319.171 48.6186C318.229 48.6186 317.465 49.3826 317.465 50.3251C317.465 51.2676 318.229 52.0317 319.171 52.0317Z" fill="white"/>
<path d="M273.654 52.0317L310.032 52.0317C310.361 52.0317 310.628 51.7645 310.628 51.435V49.2093C310.628 48.8798 310.361 48.6126 310.032 48.6126L273.654 48.6126C273.324 48.6126 273.057 48.8798 273.057 49.2093V51.435C273.057 51.7645 273.324 52.0317 273.654 52.0317Z" fill="white"/>
<path d="M297.826 458.565C304.429 458.565 309.781 453.211 309.781 446.607C309.781 440.003 304.429 434.65 297.826 434.65C291.224 434.65 285.871 440.003 285.871 446.607C285.871 453.211 291.224 458.565 297.826 458.565Z" fill="white"/>
<path opacity="0.1" d="M288.025 488C371.71 488 439.551 474.91 439.551 458.762C439.551 442.614 371.71 429.524 288.025 429.524C204.339 429.524 136.499 442.614 136.499 458.762C136.499 474.91 204.339 488 288.025 488Z" fill="#FFC107"/>
<path opacity="0.1" d="M369.455 126.404H224.491V320.329H369.455V126.404Z" fill="#FFC107"/>
<path d="M348.617 220.413C348.259 220.007 347.895 219.613 347.52 219.219C350.401 215.949 353.39 212.59 353.36 208.389C353.33 203.276 348.796 199.355 347.102 194.522C344.799 187.958 347.997 180.906 349.309 174.073C350.333 168.52 350.119 162.81 348.681 157.349C347.244 151.889 344.619 146.813 340.993 142.484C339.663 140.909 338.118 139.388 336.131 138.767C333.119 137.812 329.909 139.137 326.771 139.525C316.397 140.802 306.959 131.863 296.538 132.663C295.847 132.689 295.168 132.843 294.533 133.116C293.185 133.761 292.457 135.181 291.622 136.41C288.383 141.184 282.948 143.57 277.537 145.957C276.859 146.16 276.212 146.457 275.616 146.84C273.994 147.598 272.395 148.386 270.886 149.281C263.369 153.792 262.176 159.574 264.52 164.395C265.412 166.173 266.654 167.752 268.171 169.037C268.114 169.329 268.043 169.618 267.956 169.903C266.423 175.416 261.054 180.363 262.033 186.097C262.248 187.213 262.651 188.284 263.226 189.265V189.265C264.819 192.147 267.455 194.636 268.469 197.762C268.574 198.079 268.66 198.402 268.726 198.729C269.275 201.462 268.404 204.063 267.205 206.647C255.775 209.29 242.865 214.159 241.863 222.758C240.109 237.711 234.835 279.014 234.835 279.014C234.835 279.014 231.304 298.108 239.811 300.435C242.489 301.163 246.373 300.214 251.945 296.461L251.647 297.344C251.581 297.541 251.515 297.732 251.456 297.941C249.02 305.263 247.07 312.738 245.621 320.317H327.708C327.018 315.551 325.946 310.848 324.504 306.253C324.403 305.919 324.301 305.615 324.212 305.328C326.544 306.331 328.935 307.192 331.371 307.906C334.395 308.813 336.823 308.801 338.774 308.222C345.879 306.104 346.631 296.479 346.631 296.479L349.685 273.017L353.336 238.033C353.875 236.516 354.148 234.917 354.141 233.307C354.141 229.936 352.996 225.401 348.617 220.413ZM286.289 198.383C286.33 197.977 286.36 197.565 286.384 197.16L286.492 197.231C286.492 197.619 286.45 198.007 286.408 198.389C286.408 198.389 286.408 198.43 286.408 198.454C286.292 199.674 286.032 200.876 285.632 202.035C285.949 200.837 286.168 199.616 286.289 198.383ZM327.714 283.006C325.882 283.841 323.442 282.642 323.442 282.642C323.651 283.024 323.848 283.394 324.039 283.764C324.041 283.778 324.041 283.792 324.039 283.805L323.908 283.734L322.506 283.018C323.078 280.18 324.004 277.426 325.262 274.819C326.33 272.648 327.282 270.421 328.113 268.148V268.148C328.465 267.146 328.758 266.227 328.996 265.379C328.954 269.138 329.135 272.896 329.539 276.633C330.064 280.697 329.056 282.403 327.714 283.006V283.006Z" fill="url(#paint1_linear)"/>
<path d="M271.619 151.829C269.669 153.159 267.622 154.699 266.93 156.96C265.809 160.606 268.625 164.264 268.899 168.071C269.406 174.986 261.585 180.703 262.736 187.547C263.524 192.237 268.332 195.423 269.257 200.077C270.605 206.88 263.238 212.876 263.816 219.768C264.126 223.45 266.686 226.577 269.585 228.856C273.661 232.047 278.539 234.05 283.682 234.644C283.342 228.731 278.951 223.342 279.709 217.465C280.228 213.437 283.061 210.138 284.702 206.42C287.583 199.892 286.659 192.338 284.934 185.417C283.21 178.495 280.711 171.651 280.586 164.532C280.508 160.236 282.524 153.929 281.045 149.854C279.249 144.913 274.966 149.549 271.619 151.829Z" fill="#B0605D"/>
<path opacity="0.1" d="M272.216 150.635C270.265 151.966 268.219 153.505 267.527 155.767C266.405 159.413 269.221 163.07 269.495 166.877C270.003 173.793 262.182 179.509 263.333 186.353C264.12 191.043 268.929 194.23 269.853 198.884C271.202 205.686 263.834 211.683 264.413 218.575C264.723 222.256 267.282 225.383 270.182 227.663C274.258 230.854 279.136 232.857 284.278 233.45C283.938 227.537 279.548 222.149 280.305 216.272C280.824 212.244 283.658 208.944 285.298 205.227C288.18 198.699 287.255 191.145 285.531 184.223C283.807 177.302 281.307 170.457 281.182 163.339C281.105 159.043 283.121 152.736 281.641 148.66C279.846 143.72 275.562 148.356 272.216 150.635Z" fill="black"/>
<path d="M278.527 240.33C278.527 240.33 246.91 208.109 270.772 210.496C276.183 211.039 279.846 210.072 282.274 208.258C285.042 206.193 286.205 203.031 286.527 199.731C287.184 193.168 284.493 186.007 284.493 186.007C284.493 186.007 316.707 160.35 310.145 192.571C309.424 195.845 309.005 199.179 308.892 202.53C308.785 209.368 311.034 211.987 314.19 213.061C319.511 214.881 327.421 212.333 331.025 218.229C337.587 228.993 278.527 240.33 278.527 240.33Z" fill="#FFB9B9"/>
<path opacity="0.05" d="M310.145 192.595C309.424 195.869 309.005 199.203 308.892 202.554C308.034 202.851 307.16 203.1 306.273 203.3C302.91 204.058 299.429 204.132 296.037 203.517C292.644 202.902 289.41 201.61 286.527 199.719C287.184 193.156 284.493 185.995 284.493 185.995C284.493 185.995 316.707 160.373 310.145 192.595Z" fill="black"/>
<path d="M326.252 177.081C326.252 183.886 323.55 190.412 318.739 195.224C313.928 200.035 307.403 202.739 300.6 202.739C293.797 202.739 287.272 200.035 282.461 195.224C277.651 190.412 274.948 183.886 274.948 177.081C274.948 176.603 274.948 176.126 274.99 175.655C275.37 168.991 278.332 162.737 283.247 158.222C288.162 153.706 294.642 151.284 301.313 151.47C307.984 151.655 314.32 154.434 318.976 159.216C323.633 163.997 326.243 170.406 326.252 177.081V177.081Z" fill="#FFB9B9"/>
<path opacity="0.05" d="M278.527 240.33C278.527 240.33 246.91 208.109 270.772 210.496C276.183 211.039 279.846 210.072 282.274 208.258C277.686 215.92 272.46 229.679 295.828 228.396C317.214 227.203 316.85 218.682 314.19 213.085C319.511 214.905 327.421 212.357 331.025 218.253C337.587 228.993 278.527 240.33 278.527 240.33Z" fill="black"/>
<path d="M351.862 239.059C351.714 239.498 351.528 239.923 351.308 240.33L343.2 246.518L342.168 247.312L328.644 257.634C328.644 257.634 329.885 259.806 328.113 266.167C327.174 269.39 325.955 272.525 324.468 275.535C323.24 278.123 322.334 280.853 321.772 283.662C321.775 283.704 321.775 283.746 321.772 283.788C321.671 284.307 321.581 284.82 321.51 285.327C320.756 290.399 320.903 295.564 321.945 300.584C321.956 300.653 321.969 300.72 321.987 300.787C322.273 302.148 322.542 303.073 322.649 303.419L322.703 303.58C322.703 303.58 322.989 304.344 323.419 305.68L323.454 305.8C324.976 310.542 326.105 315.402 326.831 320.329H246.767C248.213 312.729 250.156 305.233 252.583 297.887L252.875 297.016C252.386 297.35 251.909 297.667 251.45 297.953C245.902 301.438 242.221 301.802 239.805 300.459C233.082 296.718 236.172 279.712 236.172 279.712C236.172 279.712 241.32 238.749 243.032 223.921C244.017 215.395 256.616 210.567 267.772 207.942C273.436 206.629 279.182 205.692 284.97 205.137H285.09C285.09 205.137 284.923 205.34 284.642 205.734L284.606 205.782C284.398 206.056 284.129 206.408 283.831 206.838C281.858 209.535 280.221 212.462 278.957 215.556C277.108 220.425 276.792 225.741 282.202 228.444C284.929 229.811 289.104 230.515 295.261 230.175C304.776 229.65 309.99 227.663 312.609 225.133C313.723 224.101 314.477 222.739 314.762 221.248V221.248C315.449 217.62 313.241 213.801 311.708 211.665C311.285 211.077 310.83 210.511 310.348 209.971V209.971L325.99 211.086C333.653 211.59 340.859 214.912 346.219 220.413C346.589 220.789 346.947 221.182 347.293 221.606C354.129 229.536 352.853 236.338 351.862 239.059Z" fill="#FFD6EF"/>
<path opacity="0.05" d="M258.244 237.944C258.244 237.944 259.438 247.491 257.051 250.474C254.665 253.458 254.069 267.182 257.051 275.535L258.244 237.944Z" fill="black"/>
<path d="M299.556 258.225H263.464C262.229 258.225 261.227 259.227 261.227 260.463V272.695C261.227 273.931 262.229 274.933 263.464 274.933H299.556C300.792 274.933 301.793 273.931 301.793 272.695V260.463C301.793 259.227 300.792 258.225 299.556 258.225Z" fill="#CDD0DB"/>
<path opacity="0.05" d="M299.556 258.225H263.464C262.229 258.225 261.227 259.227 261.227 260.463V272.695C261.227 273.931 262.229 274.933 263.464 274.933H299.556C300.792 274.933 301.793 273.931 301.793 272.695V260.463C301.793 259.227 300.792 258.225 299.556 258.225Z" fill="black"/>
<path d="M299.556 258.822H263.464C262.229 258.822 261.227 259.824 261.227 261.059V273.292C261.227 274.527 262.229 275.529 263.464 275.529H299.556C300.792 275.529 301.793 274.527 301.793 273.292V261.059C301.793 259.824 300.792 258.822 299.556 258.822Z" fill="#CDD0DB"/>
<path d="M293.143 268.667C294.132 268.667 294.933 267.866 294.933 266.877C294.933 265.889 294.132 265.087 293.143 265.087C292.155 265.087 291.353 265.889 291.353 266.877C291.353 267.866 292.155 268.667 293.143 268.667Z" fill="#9DA7C0"/>
<path opacity="0.05" d="M243.963 284.688C244.501 283.085 245.384 281.619 246.548 280.392C247.712 279.166 249.131 278.209 250.704 277.588C252.744 276.741 255.232 275.201 256.491 272.391C258.841 267.181 263.017 261.811 273.755 265.391C284.493 268.972 270.772 271.358 270.772 271.358C270.772 271.358 295.231 267.778 285.686 274.939C276.141 282.099 264.21 286.276 264.21 286.276L258.334 292.499C254.755 296.3 248.538 296.282 245.21 292.237C243.718 290.411 242.937 287.952 243.963 284.688Z" fill="black"/>
<path d="M243.366 283.495C243.905 281.892 244.787 280.425 245.951 279.199C247.116 277.972 248.534 277.015 250.107 276.394C252.148 275.547 254.635 274.008 255.894 271.197C258.244 265.988 262.42 260.618 273.158 264.198C283.896 267.778 270.176 270.165 270.176 270.165C270.176 270.165 294.634 266.585 285.09 273.745C275.545 280.905 263.613 285.082 263.613 285.082L257.737 291.306C254.158 295.107 247.942 295.089 244.613 291.043C243.122 289.217 242.34 286.759 243.366 283.495Z" fill="#FFB9B9"/>
<path opacity="0.05" d="M327.445 295.823L323.269 305.967L317.9 302.034L302.986 291.049L292.845 284.486C278.527 273.745 292.845 271.955 292.845 271.955C287.476 269.568 292.845 267.182 292.845 267.182C311.935 263.005 308.355 278.519 308.355 278.519L320.448 284.79L324.462 286.872L327.445 295.823Z" fill="black"/>
<path d="M328.638 294.629L324.462 304.773L319.093 300.841L304.179 289.856L294.038 283.292C279.721 272.552 294.038 270.762 294.038 270.762C288.669 268.375 294.038 265.988 294.038 265.988C313.128 261.811 309.549 277.325 309.549 277.325L321.641 283.597L325.656 285.679L328.638 294.629Z" fill="#FFB9B9"/>
<path opacity="0.05" d="M328.638 294.629L324.462 304.773L319.093 300.841C323.932 301.014 329.647 298.675 321.617 283.597L325.632 285.679L328.638 294.629Z" fill="black"/>
<path d="M350.711 234.363L351.862 239.059L348.325 273.745L345.342 297.016C345.342 297.016 344.149 312.53 330.428 308.353C316.707 304.177 315.514 300 315.514 300C315.514 300 335.2 306.563 322.673 283.292C322.673 283.292 329.831 286.872 328.638 277.325C327.445 267.778 328.638 251.071 328.638 251.071L350.711 234.363Z" fill="#FFD6EF"/>
<path opacity="0.05" d="M326.252 177.081C326.253 182.9 324.276 188.547 320.645 193.094C317.015 197.641 311.947 200.819 306.273 202.106C305.414 199.624 304.806 197.154 305.432 194.642C306.625 189.767 312.269 186.21 311.642 181.228C311.581 180.664 311.375 180.126 311.046 179.664C309.787 178.006 307.222 178.829 305.182 179.241C299.908 180.291 294.133 176.729 292.702 171.544C290.41 173.798 287.541 175.374 284.41 176.1C281.279 176.825 278.009 176.671 274.96 175.655C275.34 168.991 278.302 162.737 283.217 158.222C288.132 153.706 294.613 151.284 301.283 151.47C307.954 151.655 314.29 154.434 318.947 159.216C323.603 163.997 326.213 170.406 326.222 177.081H326.252Z" fill="black"/>
<path d="M293.334 170.35C294.76 175.535 300.54 179.098 305.808 178.041C307.848 177.636 310.413 176.812 311.672 178.471C311.994 178.932 312.189 179.469 312.239 180.028C312.871 185.017 307.246 188.567 306.035 193.448C304.788 198.472 308.421 203.323 309.226 208.437C309.65 211.236 309.226 214.088 309.226 216.916C309.226 219.744 309.894 222.787 311.994 224.673C314.094 226.559 317.96 226.594 319.374 224.136C326.085 227.686 323.407 238.683 328.501 244.31C331.311 247.413 335.934 248.159 340.104 247.765C341.081 247.75 342.03 247.442 342.831 246.882C343.52 246.202 343.986 245.328 344.167 244.376C345.219 240.392 345.038 236.183 343.648 232.305C342.98 230.449 342.019 228.575 342.27 226.624C342.461 225.097 343.373 223.766 344.34 222.567C347.543 218.593 351.916 214.75 351.886 209.642C351.856 204.535 347.43 200.692 345.778 195.918C343.528 189.397 346.648 182.409 347.931 175.631C348.933 170.133 348.726 164.482 347.324 159.072C345.922 153.663 343.358 148.623 339.812 144.304C338.511 142.741 337.002 141.231 335.039 140.611C332.098 139.668 328.966 140.981 325.894 141.363C315.753 142.634 306.56 133.767 296.382 134.56C295.708 134.586 295.044 134.738 294.426 135.008C293.107 135.646 292.397 137.061 291.58 138.278C287.088 144.991 278.259 146.906 271.339 151.071C251.157 163.226 277.871 185.232 293.334 170.35Z" fill="#B0605D"/>
<path d="M416.434 465.558C416.434 465.558 407.796 421.785 425.585 391.783C433.126 379.248 436.398 364.604 434.909 350.05C434.142 343.147 432.745 336.328 430.733 329.679" stroke="#535461" stroke-width="2" stroke-miterlimit="10"/>
<path d="M441.841 310.704C441.364 315.925 430.507 330.204 430.507 330.204C430.507 330.204 422.441 314.189 422.925 308.962C423.014 307.701 423.354 306.471 423.925 305.344C424.496 304.216 425.287 303.214 426.25 302.396C427.213 301.578 428.329 300.96 429.534 300.579C430.739 300.198 432.008 300.061 433.266 300.176C434.524 300.292 435.747 300.657 436.862 301.252C437.978 301.846 438.963 302.656 439.761 303.636C440.559 304.616 441.154 305.746 441.51 306.958C441.866 308.171 441.977 309.442 441.835 310.698L441.841 310.704Z" fill="#FFC107"/>
<path d="M454.817 341.07C451.577 345.193 434.713 351.285 434.713 351.285C434.713 351.285 436.645 333.456 439.885 329.333C441.48 327.476 443.73 326.306 446.167 326.068C448.603 325.831 451.038 326.543 452.962 328.057C454.886 329.571 456.151 331.77 456.493 334.195C456.835 336.619 456.228 339.082 454.799 341.07H454.817Z" fill="#FFC107"/>
<path d="M449.591 390.452C444.711 392.374 427.083 389.116 427.083 389.116C427.083 389.116 437.749 374.7 442.629 372.778C444.962 371.901 447.547 371.977 449.825 372.989C452.104 374.001 453.893 375.868 454.807 378.188C455.72 380.508 455.686 383.094 454.71 385.389C453.734 387.683 451.895 389.502 449.591 390.452V390.452Z" fill="#FFC107"/>
<path d="M437.23 426.928C432.744 429.649 414.817 429.417 414.817 429.417C414.817 429.417 422.895 413.407 427.381 410.686C428.448 410.015 429.637 409.562 430.881 409.355C432.124 409.148 433.396 409.191 434.623 409.481C435.849 409.771 437.006 410.302 438.025 411.043C439.045 411.785 439.906 412.722 440.56 413.8C441.214 414.877 441.646 416.075 441.832 417.322C442.019 418.568 441.955 419.84 441.645 421.062C441.335 422.284 440.785 423.432 440.027 424.439C439.269 425.446 438.318 426.292 437.23 426.928V426.928Z" fill="#FFC107"/>
<path d="M414.764 350.474C418.176 354.46 435.279 359.83 435.279 359.83C435.279 359.83 432.595 342.096 429.188 338.116C428.383 337.149 427.394 336.35 426.278 335.768C425.162 335.186 423.941 334.832 422.687 334.726C421.433 334.62 420.17 334.764 418.972 335.151C417.774 335.537 416.665 336.158 415.709 336.977C414.753 337.796 413.97 338.797 413.404 339.921C412.838 341.046 412.501 342.272 412.413 343.528C412.325 344.783 412.488 346.044 412.891 347.237C413.295 348.429 413.931 349.53 414.764 350.474V350.474Z" fill="#FFC107"/>
<path d="M400.846 393.311C405.29 396.091 423.223 396.097 423.223 396.097C423.223 396.097 415.36 379.986 410.91 377.2C409.852 376.519 408.67 376.054 407.431 375.834C406.192 375.614 404.922 375.642 403.694 375.916C402.467 376.191 401.306 376.707 400.279 377.434C399.252 378.162 398.38 379.086 397.714 380.153C397.047 381.22 396.599 382.409 396.396 383.651C396.192 384.893 396.238 386.163 396.529 387.387C396.82 388.611 397.352 389.765 398.093 390.782C398.834 391.799 399.77 392.658 400.846 393.311V393.311Z" fill="#FFC107"/>
<path d="M393.025 436.81C396.938 440.3 414.608 443.343 414.608 443.343C414.608 443.343 409.58 426.129 405.66 422.638C404.733 421.786 403.646 421.126 402.462 420.698C401.277 420.27 400.02 420.081 398.762 420.143C397.504 420.206 396.271 420.518 395.135 421.061C393.999 421.605 392.983 422.368 392.144 423.309C391.306 424.249 390.663 425.346 390.253 426.537C389.843 427.728 389.674 428.988 389.755 430.245C389.836 431.502 390.167 432.73 390.727 433.858C391.288 434.986 392.067 435.992 393.019 436.816L393.025 436.81Z" fill="#FFC107"/>
<path d="M265.946 94.0986C265.946 88.1072 263.566 82.3611 259.331 78.1245C255.095 73.8879 249.35 71.5078 243.36 71.5078H120.302C114.312 71.5078 108.567 73.8879 104.332 78.1245C100.096 82.3611 97.7164 88.1072 97.7164 94.0986C97.7164 100.09 100.096 105.836 104.332 110.073C108.567 114.309 114.312 116.689 120.302 116.689L223.191 116.493L246.856 137.144V116.385C252.172 115.556 257.016 112.855 260.516 108.768C264.016 104.682 265.942 99.4796 265.946 94.0986Z" fill="#FFC107"/>
<path opacity="0.2" d="M124.204 102.667C128.506 102.667 131.995 99.1782 131.995 94.8743C131.995 90.5704 128.506 87.0815 124.204 87.0815C119.901 87.0815 116.413 90.5704 116.413 94.8743C116.413 99.1782 119.901 102.667 124.204 102.667Z" fill="white"/>
<path opacity="0.2" d="M150.679 102.667C154.982 102.667 158.47 99.1782 158.47 94.8743C158.47 90.5704 154.982 87.0815 150.679 87.0815C146.376 87.0815 142.888 90.5704 142.888 94.8743C142.888 99.1782 146.376 102.667 150.679 102.667Z" fill="white"/>
<path opacity="0.2" d="M177.16 102.667C181.463 102.667 184.951 99.1782 184.951 94.8743C184.951 90.5704 181.463 87.0815 177.16 87.0815C172.857 87.0815 169.369 90.5704 169.369 94.8743C169.369 99.1782 172.857 102.667 177.16 102.667Z" fill="white"/>
<path d="M286.235 351.357H224.193V369.855H286.235V351.357Z" fill="#FFC107"/>
<path opacity="0.1" d="M369.157 351.357H307.115V369.855H369.157V351.357Z" fill="#FFC107"/>
</g>
<defs>
<linearGradient id="paint0_linear" x1="296.973" y1="472.229" x2="296.973" y2="26.4156" gradientUnits="userSpaceOnUse">
<stop stop-color="#808080" stop-opacity="0.25"/>
<stop offset="0.54" stop-color="#808080" stop-opacity="0.12"/>
<stop offset="1" stop-color="#808080" stop-opacity="0.1"/>
</linearGradient>
<linearGradient id="paint1_linear" x1="68958.8" y1="108611" x2="68958.8" y2="49562.8" gradientUnits="userSpaceOnUse">
<stop stop-color="#808080" stop-opacity="0.25"/>
<stop offset="0.54" stop-color="#808080" stop-opacity="0.12"/>
<stop offset="1" stop-color="#808080" stop-opacity="0.1"/>
</linearGradient>
<clipPath id="clip0">
<rect width="621" height="488" fill="white"/>
</clipPath>
</defs>
</svg>
