<svg width="700" height="440" viewBox="0 0 700 440" fill="none" xmlns="http://www.w3.org/2000/svg">
<g clip-path="url(#clip0)">
<path d="M132.077 294.874L128.359 292.56C128.004 292.341 127.655 292.104 127.301 291.879C135.214 290.517 142.43 286.5 147.762 280.489C153.093 274.478 156.225 266.831 156.641 258.803C157.057 250.775 154.733 242.844 150.051 236.313C145.369 229.782 138.608 225.04 130.877 222.864L131.06 237.458L123.05 221.58H122.95C113.576 221.145 104.413 224.453 97.476 230.779C90.5387 237.104 86.3946 245.929 85.9548 255.312C85.9194 255.993 85.9548 256.656 85.9548 257.325C83.1705 254.141 80.6344 250.726 78.9614 246.986C75.5741 239.417 75.509 230.842 75.775 220.414C76.3071 199.761 77.1997 178.941 78.3584 158.193C86.7231 157.261 94.4818 153.374 100.242 147.23C106.001 141.087 109.385 133.089 109.785 124.674C109.832 123.591 109.814 122.525 109.785 121.46C109.785 121.194 109.785 120.933 109.743 120.667C109.672 119.637 109.578 118.619 109.418 117.613C109.418 117.448 109.359 117.288 109.329 117.128C109.187 116.276 109.01 115.436 108.809 114.607C108.732 114.293 108.655 113.986 108.573 113.678C108.324 112.773 108.052 111.903 107.733 111.003C107.627 110.713 107.509 110.411 107.39 110.139C107.142 109.494 106.87 108.855 106.58 108.228C106.427 107.896 106.279 107.565 106.119 107.239C106.072 107.156 106.043 107.068 105.995 106.985C102.259 99.6018 96.0572 93.7621 88.4675 90.4799C80.8778 87.1978 72.3794 86.6805 64.4484 89.0179L64.6849 108.015L56.7633 92.3201C50.2551 96.0544 45.1081 101.771 42.0723 108.638C39.0364 115.506 38.2703 123.164 39.8856 130.497H39.8147C39.8679 130.751 39.9448 130.994 40.0039 131.242C40.1162 131.71 40.2344 132.172 40.3645 132.633C40.5359 133.225 40.7192 133.817 40.9143 134.409C41.0621 134.847 41.2039 135.279 41.3695 135.711C41.6118 136.338 41.8838 136.947 42.1557 137.557C42.3153 137.912 42.4572 138.279 42.6286 138.628C43.0779 139.543 43.5666 140.437 44.0947 141.309C44.278 141.617 44.4849 141.901 44.6859 142.203C45.0642 142.794 45.4426 143.386 45.8682 143.937C46.1224 144.286 46.3943 144.623 46.6604 144.96C47.0505 145.452 47.4466 145.937 47.8427 146.404C48.1323 146.742 48.4338 147.067 48.7353 147.387C49.1728 147.848 49.6162 148.292 50.0773 148.724C50.3847 149.014 50.6684 149.316 51.0054 149.588C51.5256 150.056 52.0695 150.494 52.6193 150.926C52.8971 151.145 53.169 151.369 53.4528 151.583C54.2922 152.174 55.1553 152.766 56.048 153.358C56.2135 153.459 56.3968 153.541 56.5623 153.642C57.3131 154.08 58.0698 154.5 58.8501 154.879C59.1871 155.045 59.5299 155.192 59.8728 155.346C60.5113 155.63 61.1556 155.909 61.8177 156.163L63 156.577C63.6503 156.796 64.3124 157.003 64.9804 157.169C65.3706 157.276 65.7667 157.388 66.1628 157.483C66.884 157.654 67.6229 157.796 68.3678 157.927L68.5097 157.956C68.0249 166.711 67.5914 175.467 67.2091 184.226C65.1007 179.889 62.1292 176.028 58.4771 172.882C54.8249 169.736 50.569 167.369 45.9706 165.929C41.3722 164.488 36.5282 164.003 31.7358 164.503C26.9434 165.004 22.3037 166.479 18.1013 168.839L24.3558 186.001L11.4863 173.633C8.06495 176.759 5.29224 180.529 3.32649 184.727C1.36073 188.926 0.240424 193.471 0.0295484 198.104C-0.134687 201.383 0.167866 204.668 0.928114 207.862C2.54637 214.772 6.201 221.035 11.4181 225.84C16.6352 230.645 23.174 233.77 30.1866 234.809C37.1993 235.849 44.3622 234.756 50.7465 231.671C57.1309 228.586 62.442 223.652 65.9913 217.509C65.9913 218.396 65.9322 219.284 65.9086 220.178C65.6721 229.374 65.3765 240.819 69.958 251.04C73.0616 257.964 78.051 263.592 82.9636 268.634C86.1736 271.912 89.5018 275.09 92.9128 278.162C96.2711 282.675 100.651 286.326 105.694 288.814C111.298 293.134 117.103 297.2 123.103 300.952L126.851 303.283C130.221 305.372 133.673 307.521 137.055 309.752C136.464 309.693 135.872 309.627 135.281 309.598C127.779 309.248 120.36 311.295 114.096 315.444C107.833 319.593 103.05 325.629 100.438 332.678L122.548 350.686L98.2274 345.04C98.2385 351.033 99.7671 356.924 102.67 362.164C105.573 367.404 109.756 371.822 114.828 375.005C119.899 378.187 125.694 380.031 131.671 380.362C137.647 380.694 143.61 379.504 149.002 376.903L147.359 378.944C146.271 380.298 145.197 381.643 144.137 382.981C129.748 401.226 125.746 418.541 132.869 431.744L141.536 427.063C134.602 414.21 145.03 397.758 151.863 389.094C152.904 387.78 153.96 386.458 155.032 385.129C164.225 373.695 174.641 360.735 174.387 344.839C173.985 320.877 150.776 306.461 132.077 294.874Z" fill="#F2F2F2"/>
<path d="M535.214 258.621L539.849 255.733C540.292 255.454 540.723 255.141 541.167 254.88C531.249 253.18 522.21 248.14 515.544 240.595C508.879 233.049 504.987 223.451 504.515 213.39C504.179 206.475 505.486 199.58 508.328 193.269C510.979 187.356 514.894 182.099 519.797 177.867C524.7 173.636 530.472 170.534 536.704 168.78L536.473 186.99L546.47 167.182H546.588C558.285 166.637 569.72 170.766 578.377 178.66C587.034 186.554 592.205 197.567 592.752 209.277C592.793 210.123 592.752 210.951 592.752 211.786C596.233 207.815 599.39 203.554 601.477 198.891C605.71 189.422 605.793 178.77 605.456 165.75C604.794 139.977 603.682 114.009 602.234 88.1243C591.797 86.9618 582.117 82.1123 574.931 74.4469C567.745 66.7815 563.525 56.8025 563.028 46.3021C562.969 44.9528 562.987 43.6212 563.028 42.2956C563.028 41.9642 563.046 41.6328 563.081 41.3014C563.164 40.0172 563.288 38.7448 563.477 37.4962C563.507 37.289 563.56 37.0878 563.59 36.9044C563.771 35.8391 563.99 34.7897 564.246 33.756C564.34 33.3713 564.435 32.9808 564.535 32.5724C564.849 31.448 565.186 30.3295 565.582 29.2406C565.712 28.8737 565.866 28.5245 566.007 28.1635C566.327 27.3528 566.664 26.5598 567.024 25.7964C567.213 25.388 567.397 24.9738 567.615 24.5654C567.663 24.4648 567.71 24.3524 567.763 24.2518C572.42 15.0372 580.157 7.74856 589.627 3.65385C599.098 -0.440857 609.702 -1.08252 619.596 1.84048L619.301 25.5123L629.185 5.9357C637.306 10.5918 643.729 17.7241 647.516 26.292C651.303 34.8599 652.256 44.4151 650.236 53.5634H650.289C650.218 53.8771 650.118 54.1552 650.047 54.4925C649.905 55.0843 649.757 55.6761 649.598 56.2265C649.391 56.9662 649.154 57.6882 648.912 58.4102C648.729 58.9547 648.551 59.4991 648.321 60.0376C648.019 60.8188 647.682 61.5822 647.339 62.3397C647.138 62.7836 646.961 63.2393 646.748 63.6772C646.187 64.8194 645.566 65.9379 644.922 67.0208C644.697 67.4055 644.437 67.7665 644.194 68.1393C643.721 68.8732 643.243 69.5951 642.728 70.2994C642.409 70.7373 642.072 71.1516 641.741 71.5777C641.256 72.1695 640.766 72.7968 640.245 73.3826C639.887 73.7772 639.514 74.1855 639.128 74.6077C638.59 75.1995 638.029 75.7321 637.461 76.2706C637.077 76.6375 636.698 77.0044 636.279 77.3536C635.623 77.9454 634.949 78.478 634.257 79.0165C633.914 79.2887 633.577 79.5787 633.222 79.8391C632.176 80.6085 631.1 81.3423 629.983 82.0229C629.776 82.1471 629.551 82.2536 629.339 82.3779C628.408 82.9303 627.459 83.4451 626.489 83.9225C626.069 84.1296 625.638 84.3072 625.212 84.5143C624.414 84.8753 623.61 85.2185 622.788 85.5322C622.304 85.7157 621.819 85.8873 621.334 86.053C620.518 86.3311 619.697 86.5797 618.863 86.8105C618.373 86.9466 617.882 87.0827 617.379 87.207C616.475 87.42 615.559 87.5976 614.63 87.7573L614.447 87.7929C615.062 98.7174 615.604 109.644 616.073 120.572C618.704 115.162 622.412 110.346 626.969 106.422C631.526 102.497 636.836 99.5466 642.574 97.751C648.312 95.9555 654.355 95.3527 660.334 95.9799C666.312 96.6071 672.1 98.4509 677.341 101.398L669.543 122.798L685.593 107.369C689.872 111.257 693.344 115.951 695.809 121.183C698.275 126.414 699.687 132.081 699.965 137.859C700.171 141.949 699.795 146.048 698.847 150.032C696.829 158.653 692.269 166.468 685.76 172.464C679.251 178.459 671.092 182.358 662.343 183.656C653.593 184.953 644.656 183.589 636.69 179.74C628.724 175.891 622.097 169.734 617.669 162.069C617.669 163.176 617.746 164.294 617.775 165.401C618.071 176.876 618.438 191.156 612.727 203.903C608.855 212.549 602.624 219.562 596.464 225.853C592.456 229.948 588.318 233.911 584.05 237.742C579.854 243.369 574.383 247.919 568.088 251.016C561.095 256.407 553.853 261.479 546.369 266.166L541.693 269.072C537.49 271.676 533.186 274.356 528.959 277.138C529.704 277.067 530.437 276.984 531.194 276.948C540.547 276.516 549.795 279.07 557.604 284.242C565.413 289.413 571.378 296.935 574.638 305.722L547.055 328.21L577.399 321.173C577.389 328.647 575.486 335.996 571.87 342.534C568.254 349.072 563.042 354.586 556.72 358.561C550.398 362.536 543.173 364.843 535.72 365.265C528.266 365.688 520.827 364.213 514.098 360.977C514.783 361.83 515.463 362.682 516.149 363.528C517.503 365.215 518.856 366.895 520.175 368.564C538.122 391.319 543.118 412.949 534.227 429.401L523.42 423.56C532.069 407.522 519.057 386.999 510.527 376.216C509.232 374.577 507.908 372.926 506.578 371.269C495.109 357.007 482.11 340.839 482.429 321.008C482.926 291.057 511.916 273.072 535.214 258.621Z" fill="#F2F2F2"/>
<path d="M345.416 440C513.231 440 649.272 432.714 649.272 423.726C649.272 414.738 513.231 407.451 345.416 407.451C177.6 407.451 41.5587 414.738 41.5587 423.726C41.5587 432.714 177.6 440 345.416 440Z" fill="#3F3D56"/>
<path opacity="0.2" d="M344.824 431.715C495.009 431.715 616.759 425.886 616.759 418.695C616.759 411.505 495.009 405.676 344.824 405.676C194.639 405.676 72.8902 411.505 72.8902 418.695C72.8902 425.886 194.639 431.715 344.824 431.715Z" fill="black"/>
<path d="M603.747 102.505V415.293C603.747 416.424 603.298 417.509 602.499 418.31C601.7 419.11 600.615 419.559 599.485 419.559H91.3285C90.7691 419.559 90.2151 419.449 89.6983 419.234C89.1815 419.02 88.712 418.706 88.3167 418.309C87.9214 417.913 87.608 417.443 87.3945 416.925C87.1809 416.407 87.0714 415.853 87.0722 415.293V102.505C87.0714 101.945 87.1809 101.39 87.3945 100.873C87.608 100.355 87.9214 99.8844 88.3167 99.4882C88.712 99.0919 89.1815 98.7775 89.6983 98.563C90.2151 98.3485 90.7691 98.2381 91.3285 98.2381H599.467C600.028 98.2357 600.585 98.3444 601.104 98.5577C601.623 98.7711 602.095 99.0851 602.493 99.4815C602.89 99.8779 603.206 100.349 603.421 100.868C603.636 101.387 603.747 101.943 603.747 102.505Z" fill="#3F3D56"/>
<path d="M603.747 101.085V110.666H87.0722V101.085C87.0722 100.33 87.3717 99.6056 87.905 99.0718C88.4382 98.538 89.1615 98.2381 89.9156 98.2381H600.904C601.658 98.2381 602.381 98.538 602.914 99.0718C603.448 99.6056 603.747 100.33 603.747 101.085Z" fill="#CBCEDA"/>
<path d="M96.5307 107.115C98.1632 107.115 99.4865 105.79 99.4865 104.156C99.4865 102.522 98.1632 101.197 96.5307 101.197C94.8983 101.197 93.5749 102.522 93.5749 104.156C93.5749 105.79 94.8983 107.115 96.5307 107.115Z" fill="#3C5CCB"/>
<path d="M104.807 107.115C106.439 107.115 107.763 105.79 107.763 104.156C107.763 102.522 106.439 101.197 104.807 101.197C103.175 101.197 101.851 102.522 101.851 104.156C101.851 105.79 103.175 107.115 104.807 107.115Z" fill="#3C5CCB"/>
<path d="M113.083 107.115C114.716 107.115 116.039 105.79 116.039 104.156C116.039 102.522 114.716 101.197 113.083 101.197C111.451 101.197 110.127 102.522 110.127 104.156C110.127 105.79 111.451 107.115 113.083 107.115Z" fill="#3C5CCB"/>
<path opacity="0.2" d="M424.04 141.735H266.791V150.02H424.04V141.735Z" fill="#3C5CCB"/>
<path opacity="0.2" d="M257.333 225.77H136.144V367.801H257.333V225.77Z" fill="#3C5CCB"/>
<path opacity="0.2" d="M405.714 225.77H284.526V367.801H405.714V225.77Z" fill="#3C5CCB"/>
<path opacity="0.2" d="M432.907 367.801H554.095V225.77L432.907 225.77V367.801Z" fill="#3C5CCB"/>
<path d="M191.318 297.957C190.957 300.094 188.846 301.437 186.854 302.271C184.862 303.106 182.633 303.798 181.356 305.544C179.636 307.911 180.357 311.302 181.948 313.758C183.751 316.575 186.482 318.652 189.154 320.664C190.312 321.646 191.632 322.417 193.056 322.943C194.14 323.221 195.259 323.341 196.378 323.298C199.98 323.297 203.575 322.974 207.119 322.333C211.665 321.505 216.525 319.848 218.942 315.895C220.905 312.657 220.781 308.615 220.592 304.828C218.452 304.645 216.536 303.479 214.716 302.348C212.564 301.011 210.241 299.454 209.543 297.022C208.81 294.472 209.98 291.323 208.237 289.329C207.054 287.98 205.05 287.82 203.265 287.772C200.841 287.709 198.419 287.676 196 287.672C194.332 287.672 190.608 286.974 189.237 288.086C186.712 290.104 191.773 295.247 191.318 297.957Z" fill="#A0616A"/>
<path opacity="0.1" d="M191.318 297.957C190.957 300.094 188.846 301.437 186.854 302.271C184.862 303.106 182.633 303.798 181.356 305.544C179.636 307.911 180.357 311.302 181.948 313.758C183.751 316.575 186.482 318.652 189.154 320.664C190.312 321.646 191.632 322.417 193.056 322.943C194.14 323.221 195.259 323.341 196.378 323.298C199.98 323.297 203.575 322.974 207.119 322.333C211.665 321.505 216.525 319.848 218.942 315.895C220.905 312.657 220.781 308.615 220.592 304.828C218.452 304.645 216.536 303.479 214.716 302.348C212.564 301.011 210.241 299.454 209.543 297.022C208.81 294.472 209.98 291.323 208.237 289.329C207.054 287.98 205.05 287.82 203.265 287.772C200.841 287.709 198.419 287.676 196 287.672C194.332 287.672 190.608 286.974 189.237 288.086C186.712 290.104 191.773 295.247 191.318 297.957Z" fill="black"/>
<path d="M199.576 296.738C209.152 296.738 216.915 288.967 216.915 279.381C216.915 269.795 209.152 262.023 199.576 262.023C190 262.023 182.237 269.795 182.237 279.381C182.237 288.967 190 296.738 199.576 296.738Z" fill="#A0616A"/>
<path d="M235.808 321.505C235.694 322.549 235.362 323.557 234.833 324.464C234.676 324.707 234.498 324.937 234.301 325.15C233.325 326.221 231.936 326.926 230.677 327.677C227.13 329.837 223.152 332.648 222.489 336.761C222.271 338.041 221.973 339.306 221.597 340.549C220.769 343.366 219.687 346.135 219.055 348.952C218.661 350.585 218.484 352.262 218.529 353.941C218.549 354.466 218.596 354.989 218.671 355.509C219.232 359.498 221.278 363.078 223.684 366.481C223.944 366.848 224.204 367.215 224.47 367.576L224.641 367.807H168.043C168.138 367.446 168.233 367.091 168.321 366.73C168.332 366.674 168.346 366.619 168.363 366.564C168.924 364.309 169.415 362.043 169.758 359.758C170.078 357.73 170.254 355.681 170.284 353.627C170.284 351.852 170.674 349.887 172.158 348.893C172.258 348.532 172.353 348.165 172.448 347.804C173.756 342.429 173.728 336.814 172.365 331.453C172.282 331.121 172.188 330.79 172.099 330.459C172.057 330.311 172.01 330.163 171.969 330.015C171.47 328.437 171.051 326.836 170.716 325.215C170.367 323.28 170.29 321.221 169.261 319.552C168.233 317.883 166.441 316.907 164.851 315.776C164.07 315.244 163.368 314.604 162.764 313.877C162.106 313.114 161.712 312.159 161.641 311.154C161.63 310.857 161.652 310.559 161.706 310.267C161.999 309.046 162.623 307.93 163.509 307.041C167.104 303.082 172.595 301.419 177.993 301.348C178.826 301.348 179.654 301.348 180.476 301.419C181.437 301.435 182.385 301.648 183.26 302.047C183.8 302.325 184.274 302.716 184.649 303.195C185.178 303.861 185.579 304.619 185.832 305.432C186.044 306.084 186.202 306.753 186.304 307.432C186.636 309.545 186.706 311.793 187.818 313.616C189.834 316.918 194.427 317.522 198.222 316.806C201.61 316.14 204.809 314.734 207.591 312.688C210.374 310.642 212.671 308.007 214.32 304.97C214.673 304.232 215.068 303.515 215.502 302.822C215.732 302.474 216.002 302.154 216.306 301.869C221.564 302.838 226.508 305.072 230.713 308.379C232.031 309.375 233.184 310.574 234.129 311.93C235.903 314.735 236.305 318.238 235.808 321.505Z" fill="#F2F2F2"/>
<path d="M237.582 357.243C237.103 358.897 236.371 360.466 235.412 361.895C234.78 363.108 233.93 364.196 232.906 365.102C230.807 366.753 227.904 366.718 225.221 366.564H225.008L223.678 366.487L216.046 366.031C214.023 365.959 212.008 365.743 210.016 365.386C209.484 365.28 208.958 365.15 208.432 365.008C205.476 364.215 202.585 363.031 199.529 362.859C198.642 362.806 197.755 362.859 196.851 362.859H196.602C196.009 362.86 195.417 362.82 194.829 362.741C193.86 362.599 192.908 362.291 191.921 362.244C189.39 362.114 187.156 363.635 184.998 365.019L184.407 365.386C182.863 366.365 181.223 367.182 179.512 367.825H169.261C169.088 367.692 168.927 367.544 168.782 367.381C168.607 367.187 168.452 366.974 168.321 366.748C168.292 366.694 168.262 366.641 168.239 366.588C167.906 365.873 167.733 365.095 167.733 364.306C167.733 363.518 167.906 362.739 168.239 362.025C168.62 361.204 169.125 360.446 169.734 359.776C170.406 359.047 171.129 358.366 171.898 357.74C175.882 354.415 180.464 351.609 185.56 350.639C185.914 350.574 186.275 350.515 186.63 350.467C189.18 350.174 191.75 350.089 194.315 350.213L196.721 350.26L206.8 350.467H207.078C211.127 350.544 215.384 350.574 219.043 348.958C219.509 348.75 219.962 348.517 220.403 348.26C220.778 348.069 221.101 347.789 221.343 347.443C221.578 346.967 221.674 346.433 221.62 345.904L221.585 340.578L221.514 330.311C221.514 327.79 221.498 325.271 221.467 322.753C221.367 321.973 221.445 321.181 221.696 320.435C221.947 319.69 222.364 319.011 222.915 318.451C224.387 316.599 227.975 310.059 230.517 309.953C230.969 309.927 231.416 310.052 231.788 310.308C233.952 311.752 233.964 317.226 234.017 319.072C234.076 321.112 234.165 323.15 234.283 325.186C234.768 333.523 235.755 341.823 237.239 350.041C237.676 352.402 238.149 354.876 237.582 357.243Z" fill="#A0616A"/>
<path opacity="0.1" d="M237.582 357.243C237.103 358.897 236.371 360.466 235.412 361.895C234.78 363.108 233.93 364.196 232.906 365.102C230.807 366.753 227.904 366.718 225.221 366.564H225.008L223.678 366.487L216.046 366.031C214.023 365.959 212.008 365.743 210.016 365.386C209.484 365.28 208.958 365.15 208.432 365.008C205.476 364.215 202.585 363.031 199.529 362.859C198.642 362.806 197.755 362.859 196.851 362.859H196.602C196.009 362.86 195.417 362.82 194.829 362.741C193.86 362.599 192.908 362.291 191.921 362.244C189.39 362.114 187.156 363.635 184.998 365.019L184.407 365.386C182.863 366.365 181.223 367.182 179.512 367.825H169.261C169.088 367.692 168.927 367.544 168.782 367.381C168.607 367.187 168.452 366.974 168.321 366.748C168.292 366.694 168.262 366.641 168.239 366.588C167.906 365.873 167.733 365.095 167.733 364.306C167.733 363.518 167.906 362.739 168.239 362.025C168.62 361.204 169.125 360.446 169.734 359.776C170.406 359.047 171.129 358.366 171.898 357.74C175.882 354.415 180.464 351.609 185.56 350.639C185.914 350.574 186.275 350.515 186.63 350.467C189.18 350.174 191.75 350.089 194.315 350.213L196.721 350.26L206.8 350.467H207.078C211.127 350.544 215.384 350.574 219.043 348.958C219.509 348.75 219.962 348.517 220.403 348.26C220.778 348.069 221.101 347.789 221.343 347.443C221.578 346.967 221.674 346.433 221.62 345.904L221.585 340.578L221.514 330.311C221.514 327.79 221.498 325.271 221.467 322.753C221.367 321.973 221.445 321.181 221.696 320.435C221.947 319.69 222.364 319.011 222.915 318.451C224.387 316.599 227.975 310.059 230.517 309.953C230.969 309.927 231.416 310.052 231.788 310.308C233.952 311.752 233.964 317.226 234.017 319.072C234.076 321.112 234.165 323.15 234.283 325.186C234.768 333.523 235.755 341.823 237.239 350.041C237.676 352.402 238.149 354.876 237.582 357.243Z" fill="black"/>
<path d="M188.155 251.856C186.653 252.081 184.992 252.484 184.176 253.762C183.538 254.756 183.585 256.017 183.366 257.177C183.013 259.039 181.975 260.7 180.458 261.834C179.216 262.751 177.715 263.266 176.432 264.124C175.149 264.982 174.014 266.385 174.186 267.924C174.333 269.267 175.403 270.291 175.906 271.557C176.834 273.865 175.74 276.44 174.724 278.712C173.707 280.985 172.749 283.659 173.914 285.855C175.149 288.169 178.336 289.045 179.234 291.501C180.351 294.46 177.461 297.614 177.833 300.768C178.152 303.36 180.706 305.213 183.29 305.591C184.525 305.769 185.897 305.645 186.837 304.822C187.776 303.999 188.072 302.656 188.113 301.407C188.273 296.59 185.536 292.169 184.738 287.411C184.478 285.843 184.442 284.162 185.169 282.748C185.631 281.854 186.352 281.121 186.754 280.192C187.552 278.256 186.647 275.919 187.505 274.007C187.99 273.17 188.55 272.377 189.178 271.64C189.727 270.841 190.094 269.782 189.662 268.912C191.19 269.885 192.41 271.272 193.18 272.912C194.297 272.688 194.267 270.285 195.361 270.628C195.668 270.729 195.846 271.054 196.047 271.309C196.449 271.757 196.973 272.078 197.555 272.232C198.137 272.385 198.751 272.365 199.322 272.173C200.459 271.765 201.459 271.045 202.207 270.095L204.075 272.415C204.244 272.015 204.531 271.676 204.897 271.444C205.264 271.211 205.693 271.096 206.126 271.113C206.993 271.173 207.83 271.461 208.55 271.948C212.097 274.072 214.757 278.422 213.397 282.328C212.806 283.997 211.624 285.364 210.832 286.95C210.04 288.536 209.839 290.666 211.104 291.897C211.364 292.158 211.695 292.359 211.92 292.643C212.848 293.738 212.262 295.407 212.54 296.785C213.031 299.324 216.022 300.336 218.541 300.928C220.314 301.33 222.424 301.632 223.666 300.336C225.026 298.916 224.417 296.59 223.595 294.803C222.773 293.016 221.821 290.95 222.702 289.199C223.583 287.447 226.166 286.831 227.095 285.003C228.277 282.677 226.19 280.126 225.357 277.653C224.216 274.268 225.487 270.468 224.553 267C223.986 265.251 223.1 263.621 221.94 262.195C219.179 258.479 215.868 255.064 211.766 252.91C207.888 250.874 203.98 250.543 199.706 251.057C195.869 251.543 192.003 251.282 188.155 251.856Z" fill="#3C354C"/>
<path d="M221.851 330.512C221.678 330.411 221.529 330.276 221.412 330.114C221.294 329.951 221.213 329.767 221.171 329.571C219.859 325.878 218.629 322.16 217.482 318.416C217.222 317.756 217.126 317.043 217.204 316.338C217.471 315.459 218.03 314.697 218.789 314.178C220.731 312.575 222.916 311.292 225.262 310.379C226.965 309.71 229.477 308.521 231.174 309.604C233.278 310.947 231.032 314.338 230.263 316.114C229.221 318.548 228.037 320.92 226.716 323.215C226.314 323.925 222.389 330.725 221.851 330.512Z" fill="#F2F2F2"/>
<path d="M225.227 366.564C225.078 366.853 224.891 367.119 224.671 367.357C224.606 367.434 224.535 367.505 224.458 367.57C224.375 367.653 224.286 367.73 224.192 367.801H213.912C212.201 367.159 210.561 366.342 209.017 365.363L208.426 364.996C206.268 363.611 204.033 362.09 201.503 362.22C200.516 362.268 199.564 362.575 198.595 362.717C198.007 362.796 197.414 362.836 196.821 362.836H196.573C195.68 362.836 194.799 362.794 193.895 362.836C190.839 363.007 187.954 364.191 184.992 364.984C184.466 365.126 183.94 365.256 183.408 365.363C181.416 365.719 179.401 365.935 177.378 366.008L168.416 366.54H168.203C165.525 366.694 162.623 366.73 160.518 365.079C159.494 364.172 158.644 363.085 158.011 361.871C157.053 360.442 156.321 358.873 155.842 357.22C155.251 354.852 155.747 352.379 156.179 349.982C158.019 339.752 159.092 329.398 159.389 319.007C159.442 317.155 159.454 311.663 161.629 310.237C161.874 310.067 162.156 309.957 162.451 309.917C162.597 309.902 162.743 309.902 162.889 309.917C165.431 310.024 169.019 316.563 170.491 318.416C171.042 318.976 171.459 319.654 171.71 320.4C171.961 321.145 172.039 321.938 171.939 322.718C171.939 325.148 171.923 327.582 171.892 330.021C171.892 330.133 171.892 330.246 171.892 330.352C171.864 335.536 171.831 340.718 171.791 345.899C171.737 346.427 171.834 346.961 172.069 347.437C172.153 347.576 172.257 347.701 172.377 347.81C172.572 347.979 172.784 348.127 173.009 348.254C176.94 350.574 181.77 350.55 186.334 350.461H186.612L196.691 350.254L199.097 350.207C201.662 350.083 204.232 350.169 206.782 350.461C207.137 350.509 207.498 350.568 207.852 350.633C211.768 351.465 215.458 353.132 218.671 355.521C219.656 356.219 220.614 356.957 221.544 357.734C222.998 358.918 224.428 360.291 225.203 362.019C225.537 362.729 225.712 363.504 225.716 364.289C225.72 365.074 225.553 365.85 225.227 366.564Z" fill="#A0616A"/>
<path d="M172.223 330.512C172.395 330.41 172.544 330.274 172.661 330.113C172.778 329.951 172.86 329.766 172.903 329.571C174.215 325.878 175.445 322.16 176.592 318.416C176.848 317.755 176.941 317.043 176.864 316.338C176.597 315.459 176.038 314.697 175.279 314.178C173.341 312.573 171.157 311.291 168.812 310.379C167.109 309.71 164.603 308.521 162.9 309.604C160.796 310.947 163.036 314.338 163.811 316.114C164.85 318.549 166.035 320.921 167.358 323.215C167.76 323.925 171.685 330.725 172.223 330.512Z" fill="#F2F2F2"/>
<path d="M492.071 263.337C495.588 262.479 498.319 268.308 501.86 267.616C503.805 267.237 505.307 264.929 507.275 265.101C509.516 265.296 510.474 268.362 511.621 270.604C513.613 274.487 517.639 276.836 521.517 276.369C522.734 274.759 522.504 272.285 521.883 270.273C521.262 268.261 520.316 266.308 520.293 264.166C520.263 261.331 521.818 258.194 520.411 255.881C519.329 254.105 517.118 253.963 515.493 252.868C514.222 252.016 513.329 250.59 512.265 249.424C510.557 247.518 508.222 246.289 505.685 245.962C503.593 245.725 501.488 246.175 499.419 246.625L489.748 248.72C489.185 248.786 488.657 249.028 488.24 249.412C487.846 250.012 487.581 250.687 487.46 251.395C486.543 254.401 483.67 255.81 481.324 257.478C478.977 259.147 476.748 262.449 478.043 265.261C478.776 266.852 480.502 267.835 480.685 269.622C480.845 271.22 479.692 272.528 478.752 273.711C474.762 278.718 483.706 281.322 485.846 277.925C488.228 274.185 487.04 264.568 492.071 263.337Z" fill="#3C354C"/>
<path d="M486.957 294.827C486.118 295.921 485.024 296.833 484.35 298.04C483.504 299.767 483.364 301.756 483.96 303.585C484.567 305.389 485.416 307.101 486.484 308.675C487.709 310.825 489.199 312.813 490.918 314.593C492.648 316.389 494.945 317.531 497.421 317.824C500.052 318.019 502.593 316.93 504.976 315.788C505.993 315.382 506.919 314.779 507.701 314.013C508.271 313.287 508.718 312.474 509.025 311.604L511.077 306.686C511.653 305.492 512.052 304.22 512.259 302.911C512.472 300.869 511.762 298.851 511.077 296.916L507.323 286.577C507.166 285.984 506.856 285.443 506.424 285.009C506.013 284.71 505.541 284.508 505.041 284.417C502.664 283.801 500.236 283.405 497.787 283.233C495.967 283.109 491.834 282.464 490.244 283.494C488.784 284.447 489.393 286.873 489.221 288.441C489.067 290.737 488.284 292.947 486.957 294.827Z" fill="#A0616A"/>
<path opacity="0.1" d="M486.957 294.827C486.118 295.921 485.024 296.833 484.35 298.04C483.504 299.767 483.364 301.756 483.96 303.585C484.567 305.389 485.416 307.101 486.484 308.675C487.709 310.825 489.199 312.813 490.918 314.593C492.648 316.389 494.945 317.531 497.421 317.824C500.052 318.019 502.593 316.93 504.976 315.788C505.993 315.382 506.919 314.779 507.701 314.013C508.271 313.287 508.718 312.474 509.025 311.604L511.077 306.686C511.653 305.492 512.052 304.22 512.259 302.911C512.472 300.869 511.762 298.851 511.077 296.916L507.323 286.577C507.166 285.984 506.856 285.443 506.424 285.009C506.013 284.71 505.541 284.508 505.041 284.417C502.664 283.801 500.236 283.405 497.787 283.233C495.967 283.109 491.834 282.464 490.244 283.494C488.784 284.447 489.393 286.873 489.221 288.441C489.067 290.737 488.284 292.947 486.957 294.827Z" fill="black"/>
<path d="M499.242 292.394C508.285 292.394 515.617 285.055 515.617 276.002C515.617 266.948 508.285 259.609 499.242 259.609C490.198 259.609 482.867 266.948 482.867 276.002C482.867 285.055 490.198 292.394 499.242 292.394Z" fill="#A0616A"/>
<path d="M535.527 316.936C535.563 321.457 533.83 325.813 532.039 329.956C530.248 334.098 527.972 338.188 526.222 342.443C526.08 342.786 525.944 343.135 525.808 343.484C522.797 351.272 520.133 359.18 517.816 367.209L517.644 367.801H466.864C469.181 358.924 471.167 350.047 465.61 343.922C465.439 343.733 465.268 343.537 465.102 343.33C461.466 338.945 459.835 332.962 455.513 329.234C454.52 328.376 453.368 327.618 452.753 326.452C452.399 325.735 452.221 324.944 452.233 324.144C452.229 323.44 452.272 322.736 452.363 322.037C452.788 318.191 453.338 314.155 455.655 311.054C456.714 309.698 457.981 308.519 459.409 307.562C462.565 305.341 466.12 303.752 469.879 302.881C474.111 301.91 478.782 301.768 482.234 299.123C482.96 298.453 483.752 297.858 484.599 297.348L484.835 297.247C485.244 297.054 485.698 296.977 486.147 297.025C486.597 297.073 487.024 297.244 487.383 297.519C487.83 298.018 488.126 298.634 488.234 299.295C488.861 301.591 489.489 303.887 490.12 306.183C490.334 307.318 490.823 308.383 491.545 309.284C493.218 311.024 496.416 310.817 497.716 312.835C498.497 314.06 500.548 312.634 501.441 311.498C503.606 308.753 505.478 305.79 507.027 302.656C507.55 301.414 508.247 300.252 509.096 299.206C509.707 298.533 510.499 298.051 511.378 297.821C511.808 297.715 512.256 297.703 512.691 297.786C513.967 298.046 514.901 299.099 515.77 300.07C520.97 305.884 527.114 310.776 533.943 314.539C534.484 314.768 534.946 315.151 535.273 315.64C535.416 315.938 535.493 316.263 535.498 316.593C535.521 316.717 535.527 316.83 535.527 316.936Z" fill="#3C354C"/>
<path d="M493.838 262.503C496.576 261.911 498.698 265.846 501.453 265.379C502.966 265.13 504.136 263.604 505.662 263.692C507.406 263.822 508.15 265.882 509.043 267.385C509.837 268.683 510.977 269.733 512.335 270.417C513.693 271.102 515.214 271.394 516.728 271.261C517.674 270.178 517.497 268.521 517.012 267.166C516.527 265.811 515.788 264.497 515.77 263.065C515.77 261.153 516.953 259.047 515.865 257.49C515.026 256.307 513.305 256.2 512.04 255.466C511.053 254.875 510.361 253.934 509.528 253.152C508.125 251.835 506.328 251.018 504.414 250.827C502.778 250.744 501.138 250.894 499.543 251.27L492.024 252.679C491.593 252.715 491.182 252.875 490.841 253.141C490.546 253.534 490.344 253.989 490.25 254.472C489.535 256.496 487.294 257.431 485.479 258.561C483.665 259.692 481.932 261.905 482.926 263.793C483.517 264.864 484.835 265.521 484.977 266.752C485.107 267.823 484.208 268.705 483.475 269.498C480.378 272.859 487.33 274.611 489.003 272.327C490.853 269.794 489.925 263.331 493.838 262.503Z" fill="#3C354C"/>
<path d="M543.212 367.801H529.385C529.61 362.132 527.304 356.373 527.02 350.592C526.914 348.42 527.097 346.212 526.66 344.082C526.545 343.527 526.397 342.98 526.216 342.443C525.868 341.348 525.442 340.271 525.111 339.17C524.011 335.495 524.053 331.589 524.106 327.754C524.169 323.521 524.236 319.291 524.307 315.066C524.307 313.965 523.982 312.344 524.981 311.882C527.233 310.841 529.574 312.906 531.643 314.249C532.885 315.078 534.303 315.729 535.509 316.617C536.228 317.112 536.851 317.733 537.348 318.451C537.931 319.439 538.344 320.517 538.572 321.641C540.247 328.044 541.705 334.501 542.946 341.01C543.537 343.84 543.932 346.707 544.128 349.591C544.489 355.651 543.23 361.765 543.212 367.801Z" fill="#3C354C"/>
<path d="M457.328 361.208C456.737 362.652 456.099 364.167 456.187 365.741C456.241 366.448 456.4 367.142 456.66 367.801H444.134C443.505 365.668 443.031 363.492 442.715 361.291C442.124 357.007 442.449 352.645 443.004 348.349C443.378 345.012 444.105 341.725 445.174 338.543C446.628 334.465 448.928 330.772 450.885 326.937C451.346 326.044 451.765 325.038 452.256 324.15C453.308 322.203 454.668 320.771 457.376 322.079C464.109 325.328 467 336.708 465.126 343.336C465.128 343.354 465.128 343.372 465.126 343.389C464.592 345.072 463.924 346.709 463.128 348.284C461.094 352.552 459.161 356.861 457.328 361.208Z" fill="#3C354C"/>
<path d="M347.597 255.052C348.937 255.541 350.059 256.494 350.76 257.739C351.298 258.857 351.28 260.165 351.646 261.355C352.421 263.858 354.75 265.497 356.198 267.687C358.161 270.646 358.392 274.416 358.256 277.966C358.12 281.517 357.664 285.139 358.551 288.589C358.971 290.27 359.686 291.868 359.976 293.578C360.325 295.649 360.035 297.815 360.567 299.851C361.034 301.703 362.128 303.325 363.204 304.899L367.803 311.628C365.744 311.14 363.717 310.529 361.732 309.799C362.344 311.727 363.48 313.446 365.013 314.764L361.69 310.74C361.014 309.808 360.175 309.006 359.213 308.373C357.995 307.68 356.553 307.574 355.182 307.29C352.551 306.757 349.914 305.408 348.626 303.035C346.905 299.875 348.034 295.904 347.047 292.436C346.344 289.903 344.606 287.814 343.411 285.482C340.698 280.197 340.864 273.966 340.012 268.083C339.646 265.586 339.09 263.106 339.078 260.579C339.078 258.715 339.262 255.176 341.212 254.224C342.903 253.425 346.024 254.383 347.597 255.052Z" fill="#3F3D56"/>
<path d="M349.625 297.383C349.902 300.472 350.547 304.118 353.361 305.414C354.951 306.148 356.801 305.875 358.527 306.16C361.785 306.686 364.439 309.195 365.976 312.137C367.513 315.078 368.004 318.416 368.341 321.706C368.784 325.819 368.932 330.287 366.668 333.755C364.841 336.566 361.684 338.276 358.451 339.146C355.196 339.995 351.795 340.118 348.488 339.504C345.181 338.89 342.049 337.556 339.315 335.595C336.637 333.648 334.426 331.139 332.274 328.63C327.586 323.168 322.869 317.179 321.905 310.042C321.793 309.231 321.805 308.266 322.496 307.769C322.954 307.511 323.482 307.405 324.004 307.467L328.496 307.55C329.637 307.55 330.926 307.55 331.701 306.692C332.475 305.834 332.428 304.757 332.398 303.733C332.284 299.393 332.17 295.044 332.055 290.684C331.986 290.223 332.092 289.752 332.351 289.364C332.637 289.106 333.001 288.95 333.385 288.921C335.862 288.5 338.452 288.921 340.875 288.246C343.181 287.613 346.787 284.961 348.495 287.684C349.926 289.962 349.406 294.756 349.625 297.383Z" fill="#FFC1C7"/>
<path opacity="0.1" d="M349.625 297.383C349.902 300.472 350.547 304.118 353.361 305.414C354.951 306.148 356.801 305.875 358.527 306.16C361.785 306.686 364.439 309.195 365.976 312.137C367.513 315.078 368.004 318.416 368.341 321.706C368.784 325.819 368.932 330.287 366.668 333.755C364.841 336.566 361.684 338.276 358.451 339.146C355.196 339.995 351.795 340.118 348.488 339.504C345.181 338.89 342.049 337.556 339.315 335.595C336.637 333.648 334.426 331.139 332.274 328.63C327.586 323.168 322.869 317.179 321.905 310.042C321.793 309.231 321.805 308.266 322.496 307.769C322.954 307.511 323.482 307.405 324.004 307.467L328.496 307.55C329.637 307.55 330.926 307.55 331.701 306.692C332.475 305.834 332.428 304.757 332.398 303.733C332.284 299.393 332.17 295.044 332.055 290.684C331.986 290.223 332.092 289.752 332.351 289.364C332.637 289.106 333.001 288.95 333.385 288.921C335.862 288.5 338.452 288.921 340.875 288.246C343.181 287.613 346.787 284.961 348.495 287.684C349.926 289.962 349.406 294.756 349.625 297.383Z" fill="black"/>
<path d="M338.31 296.537C347.794 296.537 355.483 288.84 355.483 279.345C355.483 269.851 347.794 262.154 338.31 262.154C328.825 262.154 321.137 269.851 321.137 279.345C321.137 288.84 328.825 296.537 338.31 296.537Z" fill="#FFC1C7"/>
<path d="M376.534 352.965C376.417 353.667 376.253 354.361 376.044 355.042C375.494 356.63 374.862 358.188 374.152 359.711C373.88 360.344 373.626 360.978 373.407 361.629C373.236 362.137 373.088 362.658 372.958 363.179C372.828 363.7 372.674 364.404 372.568 365.025C372.408 365.943 372.29 366.872 372.195 367.801H327.379C327.572 365.53 327.486 363.245 327.125 360.995C326.523 357.898 325.596 354.873 324.358 351.97C321.503 344.644 318.311 337.176 316.555 329.535C316.555 329.535 316.555 329.535 316.555 329.506C315.327 324.548 314.959 319.415 315.467 314.332C315.503 314.036 315.544 313.74 315.586 313.433C315.691 312.665 315.835 311.902 316.017 311.148C316.45 309.003 317.434 307.009 318.872 305.361C320.882 303.195 324.282 302.123 326.889 303.508C328.461 304.343 329.436 305.822 330.217 307.461C330.713 308.503 331.133 309.604 331.571 310.651C333.173 314.433 335.475 317.876 338.357 320.801C338.907 321.392 339.486 321.919 340.083 322.44C340.68 322.961 341.201 323.399 341.786 323.848C343.683 325.31 345.971 327.162 348.448 327.227C349.885 327.269 351.351 327.227 352.835 327.227C354.135 327.227 355.448 327.174 356.742 327.227C359.515 327.281 362.654 326.494 363.996 324.061C364.912 322.398 364.758 320.369 364.587 318.475C364.451 316.995 364.315 315.516 364.173 314.03C364.173 313.953 364.173 313.877 364.173 313.8C364.078 312.728 363.978 311.669 363.877 310.598C363.83 310.083 363.783 309.562 363.73 309.047L363.623 307.899C364.116 307.844 364.613 307.797 365.113 307.757C367.354 307.58 369.641 307.621 371.569 308.716C373.401 309.752 374.524 311.533 375.246 313.551C375.725 314.989 376.034 316.479 376.168 317.99C376.83 324.706 375.76 331.482 376.126 338.217C376.363 343.093 377.391 348.153 376.534 352.965Z" fill="#3C5CCB"/>
<path d="M386.767 367.801H373.212C373.1 366.262 373.011 364.724 372.958 363.179C372.91 362.114 372.875 361.043 372.857 359.977C372.798 357.105 372.822 354.241 372.928 351.385C375.597 352.894 378.585 353.748 381.648 353.876C382.887 355.265 383.886 356.851 384.604 358.569C385.006 359.514 385.343 360.484 385.615 361.475C385.618 361.488 385.618 361.502 385.615 361.516C386.171 363.576 386.556 365.678 386.767 367.801Z" fill="#FFC1C7"/>
<path d="M385.579 358.551C380.452 358.601 375.35 359.277 370.386 360.563C369.73 357.32 370.049 353.971 370.386 350.68L372.579 328.068C372.739 326.393 372.432 311.018 375.671 313.735C376.853 314.735 378.367 323.724 378.739 325.168C379.301 327.352 379.744 329.559 380.14 331.772C380.95 336.317 381.5 340.898 382.286 345.449C382.511 346.763 384.409 358.563 385.579 358.551Z" fill="#3C5CCB"/>
<path d="M344.854 257.484C344.878 256.947 344.756 256.413 344.499 255.94C344.277 255.659 343.999 255.427 343.683 255.26C343.366 255.093 343.018 254.994 342.661 254.969C340.184 254.585 337.464 255.561 335.224 254.448C334.042 253.857 333.149 252.673 331.967 252.016C329.176 250.436 325.653 252.016 323.182 254.064C319.248 257.334 316.38 261.707 314.947 266.622C313.848 270.421 313.404 274.865 310.259 277.274C308.959 278.268 307.303 278.819 306.328 280.144C305.595 281.162 305.423 282.47 305.288 283.695C304.962 286.583 304.696 289.542 305.447 292.347C306.038 294.436 307.132 296.33 307.812 298.383C308.748 301.29 308.834 304.404 308.061 307.359C307.288 310.314 305.688 312.985 303.449 315.06C304.594 315.775 305.973 316.014 307.292 315.729C307.266 316.335 307.074 316.923 306.736 317.427C310.756 317.297 314.25 313.379 318.181 314.238C321.184 314.888 322.857 317.99 325.097 320.096C327.982 322.813 332.463 323.949 336.087 322.339C339.711 320.73 341.91 316.149 340.373 312.492C338.599 308.349 333.226 306.686 331.352 302.573C329.903 299.383 330.979 295.667 330.666 292.181C330.4 289.187 329.111 286.399 328.301 283.506C327.492 280.612 327.237 277.304 328.893 274.783C330.631 272.108 333.959 271.066 336.986 270.048C343.802 267.847 345.114 264.385 344.854 257.484Z" fill="#3F3D56"/>
<path d="M340.633 319.291C341.124 316.924 341.608 314.338 340.745 312.048C339.137 307.775 333.882 306.444 330.246 303.692C328.14 302.091 326.522 299.932 325.576 297.46C324.914 295.726 324.825 293.318 326.451 292.442C327.084 292.146 327.783 292.023 328.479 292.087C334.142 292.217 339.332 295.3 343.677 298.946C346.202 301.07 348.602 303.502 349.861 306.55C350.754 308.71 351.043 311.066 351.298 313.385L352.184 321.079C352.77 325.489 353.111 329.928 353.207 334.376C353.213 336.927 353.053 339.475 352.728 342.005C352.504 343.78 352.137 345.65 351.114 347.124C349.152 349.864 345.38 350.479 342.01 350.574C340.738 350.647 339.462 350.566 338.209 350.331C332.611 349.112 328.366 341.265 332.599 336.418C334.373 334.359 337.104 334.305 338.126 331.482C339.498 327.742 339.829 323.215 340.633 319.291Z" fill="#FFC1C7"/>
<path d="M336.087 320.641L340.503 327.867C340.767 328.241 340.95 328.666 341.041 329.115C341.165 330.056 340.45 330.891 339.906 331.654C336.099 336.862 337.068 344.023 338.215 350.373C332.14 348.444 326.729 344.842 322.604 339.978C318.478 335.114 315.804 329.186 314.888 322.872C314.332 319.09 313.434 312.865 316.786 310.403C324.861 304.473 332.298 314.451 336.087 320.641Z" fill="#3C5CCB"/>
<path d="M358.527 306.16C356.801 305.875 354.981 306.16 353.361 305.414C350.547 304.118 349.902 300.472 349.625 297.383C349.625 297.099 349.583 296.791 349.571 296.454C350.579 295.415 351.673 294.462 352.841 293.608C353.894 292.991 355.015 292.497 356.181 292.134L359.302 291.033C359.589 291.864 359.814 292.714 359.976 293.578C360.325 295.649 360.035 297.815 360.567 299.851C361.034 301.703 362.128 303.325 363.204 304.899L367.803 311.628C366.969 311.432 366.142 311.208 365.32 310.971C363.73 308.556 361.347 306.615 358.527 306.16Z" fill="#3F3D56"/>
<path d="M63.1892 424.122C64.9627 420.861 62.9528 416.861 60.6532 413.955C58.3535 411.049 55.5633 408.037 55.6224 404.315C55.711 398.989 61.3566 395.846 65.8672 393.017C69.2165 390.924 72.3044 388.439 75.0657 385.614C76.2229 384.528 77.1795 383.246 77.8914 381.827C78.8255 379.743 78.8018 377.376 78.7427 375.098C78.5417 367.499 78.1653 359.906 77.6136 352.32" stroke="#3F3D56" stroke-width="4" stroke-miterlimit="10"/>
<path d="M86.1913 351.905C86.1285 350.514 85.7164 349.161 84.9931 347.972C84.2698 346.782 83.2587 345.795 82.0532 345.1L80.1969 348.781L80.2561 344.324C79.3681 344.064 78.4433 343.952 77.519 343.993C75.8861 344.074 74.3138 344.637 73.0004 345.612C71.6871 346.587 70.6914 347.929 70.1392 349.469C69.5869 351.01 69.5027 352.679 69.8973 354.267C70.2918 355.856 71.1474 357.291 72.3561 358.393C73.5648 359.495 75.0724 360.214 76.6888 360.46C78.3052 360.705 79.958 360.465 81.4385 359.771C82.9191 359.077 84.1612 357.96 85.0081 356.56C85.855 355.16 86.2688 353.54 86.1972 351.905H86.1913Z" fill="#3C5CCB"/>
<path d="M71.3945 408.12C70.5243 409.809 69.1007 411.146 67.3623 411.909C65.6239 412.672 63.6764 412.814 61.8463 412.31C60.0161 411.806 58.4144 410.689 57.3096 409.143C56.2049 407.598 55.6642 405.72 55.7782 403.823C55.8922 401.927 56.654 400.127 57.9359 398.726C59.2177 397.324 60.9418 396.407 62.8191 396.127C64.6964 395.846 66.6129 396.221 68.2473 397.187C69.8817 398.153 71.1348 399.652 71.7965 401.433L66.6121 405.652L72.3168 404.332C72.3147 405.65 71.9985 406.949 71.3945 408.12Z" fill="#3C5CCB"/>
<path d="M67.2978 391.994C65.2363 392.139 63.195 391.508 61.5752 390.223C59.9553 388.938 58.8742 387.093 58.5445 385.051C58.2147 383.009 58.6601 380.917 59.7931 379.187C60.9261 377.456 62.6648 376.213 64.6671 375.701L64.6198 379.122L66.4997 375.4C67.5926 375.343 68.6858 375.504 69.7161 375.873C70.7464 376.243 71.6933 376.813 72.5021 377.551C73.3108 378.289 73.9653 379.18 74.4276 380.173C74.89 381.166 75.1511 382.241 75.1957 383.336C75.2443 384.294 75.1242 385.253 74.841 386.17C74.336 387.801 73.3404 389.235 71.9902 390.277C70.64 391.32 69.0012 391.919 67.2978 391.994Z" fill="#3C5CCB"/>
<path d="M87.4387 378.601C86.1651 378.648 84.898 378.4 83.736 377.876C82.574 377.352 81.5485 376.567 80.7396 375.581C79.9306 374.595 79.36 373.435 79.0722 372.193C78.7844 370.95 78.7872 369.657 79.0804 368.416C79.3736 367.174 79.9492 366.017 80.7624 365.035C81.5757 364.053 82.6045 363.271 83.7688 362.753C84.933 362.234 86.2013 361.991 87.4746 362.043C88.7479 362.096 89.992 362.442 91.1098 363.055L89.6437 367.079L92.6586 364.179C94.2743 365.66 95.2373 367.723 95.3366 369.914C95.3759 370.683 95.3063 371.454 95.1297 372.204C94.7201 373.964 93.7469 375.542 92.3584 376.697C90.9699 377.852 89.2422 378.521 87.4387 378.601Z" fill="#3C5CCB"/>
<path opacity="0.1" d="M85.074 354.119C83.1587 354.326 81.2965 354.923 79.3752 355.042C77.454 355.16 75.3435 354.705 74.1257 353.207C73.4754 352.402 73.1444 351.385 72.5946 350.503C72.0695 349.684 71.3507 349.007 70.5019 348.532C70.0013 349.58 69.7263 350.721 69.6946 351.882C69.663 353.042 69.8755 354.197 70.3182 355.27C70.761 356.343 71.4242 357.311 72.2648 358.112C73.1055 358.912 74.1047 359.526 75.1978 359.915C76.2908 360.303 77.4533 360.458 78.6098 360.368C79.7663 360.278 80.8909 359.945 81.9108 359.392C82.9307 358.839 83.823 358.077 84.5298 357.156C85.2367 356.236 85.7424 355.177 86.014 354.048C85.6987 354.059 85.3854 354.083 85.074 354.119Z" fill="black"/>
<path opacity="0.1" d="M87.4387 378.601C86.0078 378.674 84.5825 378.373 83.3024 377.729C82.0223 377.085 80.9311 376.119 80.1357 374.926C79.3402 373.734 78.8678 372.354 78.7645 370.924C78.6613 369.493 78.9308 368.06 79.5467 366.765C80.205 367.208 80.7711 367.775 81.2137 368.434C81.8049 369.328 82.1655 370.363 82.8572 371.18C84.1518 372.701 86.3568 373.198 88.3609 373.109C90.3649 373.021 92.298 372.446 94.2725 372.263C94.5503 372.263 94.8282 372.222 95.1119 372.216C94.701 373.971 93.7294 375.544 92.3447 376.696C90.9599 377.849 89.2375 378.517 87.4387 378.601Z" fill="black"/>
<path opacity="0.1" d="M67.2978 391.994C65.8802 392.065 64.468 391.771 63.1968 391.139C61.9257 390.507 60.8383 389.558 60.0392 388.383C59.2401 387.209 58.7562 385.849 58.6338 384.433C58.5115 383.017 58.755 381.594 59.3408 380.3C60.0291 380.75 60.63 381.321 61.1143 381.986C61.7586 382.898 62.1606 383.951 62.8877 384.791C64.2888 386.348 66.6416 386.898 68.758 386.851C70.8743 386.804 72.7956 386.3 74.8351 386.141C74.3355 387.776 73.3429 389.216 71.9935 390.264C70.6441 391.311 69.0039 391.916 67.2978 391.994Z" fill="black"/>
<path opacity="0.1" d="M71.3946 408.12C70.497 410.128 68.8392 411.697 66.786 412.482C64.7328 413.266 62.4523 413.202 60.4462 412.304C58.4402 411.405 56.8728 409.746 56.089 407.69C55.3052 405.635 55.3691 403.352 56.2667 401.344C56.9515 401.792 57.5653 402.341 58.0875 402.971C58.8797 403.93 59.3999 405.025 60.3103 405.93C62.0069 407.599 64.744 408.297 67.1855 408.351C68.5918 408.357 69.9973 408.28 71.3946 408.12Z" fill="black"/>
<path d="M50.6743 420.364C50.6743 420.364 57.2244 420.163 59.1989 418.755C61.1734 417.346 69.2486 415.671 69.757 417.926C70.2654 420.181 79.5999 429.17 72.2104 429.206C64.8208 429.241 55.0312 428.058 53.0567 426.838C51.0822 425.619 50.6743 420.364 50.6743 420.364Z" fill="#656380"/>
<path opacity="0.2" d="M72.3404 428.424C64.945 428.484 55.1613 427.241 53.1927 426.057C51.6911 425.14 51.0941 421.861 50.8931 420.346H50.6743C50.6743 420.346 51.0882 425.637 53.039 426.856C54.9898 428.075 64.7972 429.265 72.1926 429.223C74.3267 429.223 75.0598 428.448 75.0184 427.324C74.7405 427.987 73.9247 428.407 72.3404 428.424Z" fill="black"/>
<path d="M610.457 416.062C613.584 410.262 610.037 403.155 605.952 397.977C601.867 392.798 596.896 387.419 597.002 380.815C597.156 371.346 607.199 365.741 615.222 360.723C621.178 356.997 626.671 352.575 631.585 347.55C633.559 345.538 635.463 343.407 636.616 340.815C638.277 337.11 638.23 332.897 638.123 328.837C637.772 315.321 637.104 301.816 636.119 288.323" stroke="#3F3D56" stroke-width="4" stroke-miterlimit="10"/>
<path d="M651.377 287.601C651.264 285.126 650.529 282.719 649.242 280.603C647.955 278.487 646.156 276.729 644.011 275.493L640.707 282.038L640.807 274.114C637.802 273.224 634.591 273.313 631.64 274.369C628.689 275.425 626.149 277.393 624.388 279.989C622.628 282.584 621.737 285.673 621.844 288.809C621.952 291.944 623.052 294.965 624.987 297.433C626.922 299.902 629.59 301.69 632.607 302.541C635.623 303.392 638.832 303.261 641.769 302.167C644.707 301.072 647.221 299.071 648.947 296.453C650.674 293.835 651.525 290.735 651.377 287.601Z" fill="#3C5CCB"/>
<path d="M625.059 387.602C623.51 390.623 620.971 393.019 617.867 394.387C614.763 395.756 611.284 396.014 608.012 395.119C604.741 394.224 601.876 392.229 599.9 389.47C597.923 386.711 596.955 383.355 597.157 379.966C597.359 376.577 598.719 373.36 601.01 370.856C603.3 368.352 606.381 366.713 609.736 366.214C613.091 365.714 616.515 366.385 619.434 368.114C622.353 369.843 624.59 372.524 625.768 375.707L616.552 383.217L626.69 380.85C626.695 383.199 626.135 385.515 625.059 387.602Z" fill="#3C5CCB"/>
<path d="M617.793 358.912C614.185 359.055 610.649 357.87 607.853 355.581C605.058 353.293 603.196 350.058 602.62 346.489C602.044 342.921 602.793 339.264 604.726 336.21C606.658 333.156 609.641 330.917 613.111 329.914L613.034 336.004L616.374 329.382H616.416C618.411 329.185 620.425 329.398 622.335 330.005C624.246 330.613 626.013 331.603 627.529 332.916C629.045 334.228 630.278 335.836 631.154 337.641C632.03 339.446 632.53 341.411 632.623 343.415C632.717 345.42 632.402 347.422 631.698 349.301C630.994 351.18 629.916 352.896 628.529 354.345C627.141 355.793 625.474 356.944 623.629 357.727C621.783 358.51 619.798 358.909 617.793 358.9V358.912Z" fill="#3C5CCB"/>
<path d="M653.6 335.045C651.308 335.166 649.02 334.751 646.917 333.834C644.813 332.916 642.952 331.521 641.48 329.758C640.009 327.996 638.968 325.914 638.439 323.679C637.911 321.444 637.909 319.116 638.435 316.88C638.961 314.644 640 312.562 641.469 310.797C642.938 309.033 644.798 307.635 646.9 306.715C649.002 305.795 651.29 305.377 653.582 305.495C655.873 305.614 658.106 306.265 660.102 307.396L657.495 314.551L662.863 309.397C664.289 310.699 665.444 312.27 666.262 314.02C667.081 315.769 667.547 317.663 667.634 319.593C667.701 320.962 667.573 322.332 667.256 323.665C666.52 326.787 664.79 329.586 662.327 331.639C659.864 333.691 656.801 334.887 653.6 335.045Z" fill="#3C5CCB"/>
<path opacity="0.1" d="M649.391 291.536C645.986 291.909 642.675 292.968 639.252 293.181C635.83 293.394 632.082 292.59 629.918 289.915C628.736 288.483 628.144 286.672 627.187 285.103C626.256 283.649 624.981 282.448 623.474 281.606C622.5 283.483 621.939 285.547 621.829 287.659C621.72 289.771 622.063 291.882 622.838 293.849C623.612 295.817 624.798 297.596 626.317 299.066C627.837 300.536 629.653 301.662 631.644 302.37C633.635 303.077 635.754 303.35 637.859 303.168C639.963 302.986 642.005 302.355 643.845 301.316C645.686 300.278 647.282 298.856 648.528 297.148C649.773 295.439 650.638 293.483 651.064 291.412C650.502 291.436 649.946 291.477 649.391 291.536Z" fill="black"/>
<path opacity="0.1" d="M653.6 335.045C651.057 335.16 648.528 334.615 646.257 333.464C643.987 332.313 642.052 330.594 640.639 328.474C639.227 326.355 638.386 323.906 638.197 321.365C638.007 318.824 638.477 316.277 639.56 313.971C640.726 314.758 641.73 315.762 642.516 316.93C643.568 318.522 644.2 320.357 645.471 321.812C647.765 324.523 651.696 325.405 655.255 325.245C658.814 325.085 662.254 324.061 665.807 323.742C666.298 323.7 666.795 323.665 667.291 323.653C666.556 326.783 664.822 329.589 662.351 331.644C659.881 333.7 656.809 334.894 653.6 335.045Z" fill="black"/>
<path opacity="0.1" d="M617.793 358.912C615.274 359.03 612.766 358.5 610.509 357.374C608.252 356.247 606.321 354.561 604.899 352.476C603.477 350.391 602.611 347.976 602.385 345.462C602.158 342.947 602.579 340.417 603.605 338.111C604.818 338.915 605.873 339.934 606.721 341.117C607.868 342.738 608.583 344.603 609.925 346.094C612.419 348.869 616.605 349.852 620.377 349.763C624.03 349.68 627.547 348.781 631.183 348.503C630.288 351.403 628.523 353.958 626.127 355.82C623.732 357.683 620.822 358.762 617.793 358.912Z" fill="black"/>
<path opacity="0.1" d="M625.059 387.602C623.291 390.897 620.343 393.398 616.808 394.605C613.272 395.812 609.412 395.633 606.002 394.106C602.593 392.578 599.888 389.815 598.431 386.372C596.974 382.929 596.873 379.062 598.149 375.548C599.365 376.345 600.456 377.319 601.388 378.435C602.789 380.152 603.718 382.093 605.337 383.691C608.358 386.65 613.229 387.875 617.563 387.987C620.067 388.005 622.57 387.877 625.059 387.602Z" fill="black"/>
<path d="M588.2 409.375C588.2 409.375 599.845 409.014 603.357 406.51C606.868 404.007 621.275 401.018 622.15 405.031C623.025 409.043 639.654 424.998 626.501 425.099C613.348 425.199 595.944 423.051 592.438 420.915C588.933 418.778 588.2 409.375 588.2 409.375Z" fill="#656380"/>
<path opacity="0.2" d="M626.737 423.714C613.584 423.82 596.18 421.666 592.675 419.53C590.009 417.902 588.944 412.061 588.584 409.369H588.2C588.2 409.369 588.933 418.772 592.438 420.909C595.944 423.045 613.353 425.199 626.501 425.093C630.302 425.063 631.609 423.714 631.538 421.708C631.011 422.939 629.563 423.696 626.737 423.714Z" fill="black"/>
</g>
<defs>
<clipPath id="clip0">
<rect width="700" height="440" fill="white"/>
</clipPath>
</defs>
</svg>
